<svg width="76" height="75" viewBox="0 0 76 75" fill="none" xmlns="http://www.w3.org/2000/svg">
<path d="M56.7498 56.25C57.993 56.25 59.1853 55.7561 60.0644 54.8771C60.9435 53.998 61.4373 52.8057 61.4373 51.5625V40.1156C61.4373 38.8724 60.9435 37.6801 60.0644 36.8011C59.1853 35.922 57.993 35.4281 56.7498 35.4281H50.2436C50.2436 33.7828 50.342 32.1328 50.5342 30.4875C50.8248 28.7438 51.3123 27.1922 51.9873 25.8375C52.667 24.4781 53.5389 23.4141 54.6077 22.6359C55.6717 21.7641 57.0264 21.3281 58.6764 21.3281V14.0625C55.9623 14.0625 53.5905 14.6437 51.5514 15.8062C49.5301 16.957 47.7922 18.5459 46.4655 20.4562C45.1339 22.5624 44.1524 24.8705 43.5592 27.2906C42.9615 29.9614 42.669 32.6914 42.6873 35.4281V51.5625C42.6873 52.8057 43.1812 53.998 44.0603 54.8771C44.9394 55.7561 46.1316 56.25 47.3748 56.25H56.7498ZM28.6248 56.25C29.868 56.25 31.0603 55.7561 31.9394 54.8771C32.8185 53.998 33.3123 52.8057 33.3123 51.5625V40.1156C33.3123 38.8724 32.8185 37.6801 31.9394 36.8011C31.0603 35.922 29.868 35.4281 28.6248 35.4281H22.1186C22.1186 33.7828 22.217 32.1328 22.4092 30.4875C22.6998 28.7438 23.1873 27.1922 23.8623 25.8375C24.542 24.4781 25.4139 23.4141 26.4826 22.6359C27.5467 21.7641 28.9014 21.3281 30.5514 21.3281V14.0625C27.8373 14.0625 25.4655 14.6437 23.4264 15.8062C21.4051 16.957 19.6672 18.5459 18.3405 20.4562C17.0089 22.5624 16.0274 24.8705 15.4342 27.2906C14.8365 29.9614 14.544 32.6914 14.5623 35.4281V51.5625C14.5623 52.8057 15.0562 53.998 15.9353 54.8771C16.8143 55.7561 18.0066 56.25 19.2498 56.25H28.6248Z" fill="#0074E4"/>
</svg>
